<?xml version="1.0" standalone="no"?>
<!DOCTYPE svg PUBLIC "-//W3C//DTD SVG 20010904//EN"
 "http://www.w3.org/TR/2001/REC-SVG-20010904/DTD/svg10.dtd">
<svg version="1.0" xmlns="http://www.w3.org/2000/svg"
 width="310.000000pt" height="163.000000pt" viewBox="0 0 310.000000 163.000000"
 preserveAspectRatio="xMidYMid meet">
<metadata>
Created by potrace 1.16, written by Peter Selinger 2001-2019
</metadata>
<g transform="translate(0.000000,163.000000) scale(0.100000,-0.100000)"
fill="#000000" stroke="none">
<path d="M1285 1585 c-45 -24 -65 -45 -94 -100 l-26 -50 0 -625 c0 -344 3
-637 8 -652 10 -38 65 -98 104 -114 46 -20 500 -20 546 0 39 16 94 76 104 114
5 15 8 308 8 652 l0 625 -27 52 c-15 28 -44 64 -65 80 l-36 28 -246 3 c-209 2
-250 0 -276 -13z m488 -321 c57 -13 77 -21 77 -33 0 -9 -15 -72 -34 -141 l-33
-125 -233 0 -233 0 -33 125 c-19 69 -34 132 -34 141 0 17 45 30 170 49 79 13
262 4 353 -16z m127 -343 l0 -189 -45 -4 -45 -3 0 79 c0 69 6 94 42 193 24 62
44 113 45 113 2 0 3 -85 3 -189z m-651 65 c35 -92 41 -120 41 -185 l0 -76 -45
3 -45 4 0 186 c0 102 2 183 4 181 2 -2 23 -53 45 -113z m19 -316 c22 0 22 -2
22 -140 l0 -139 -45 -31 -45 -31 0 177 0 176 23 -6 c12 -3 32 -6 45 -6z m632
-155 c0 -91 -2 -165 -5 -165 -3 0 -23 12 -45 26 l-40 27 0 133 0 133 33 4 c17
2 38 5 45 5 9 2 12 -37 12 -163z m-97 -197 c13 -18 32 -45 42 -60 l17 -28
-307 0 -307 0 17 28 c10 15 29 42 42 60 l24 32 224 0 224 0 24 -32z"/>
</g>
</svg>
